<mxfile host="app.diagrams.net" modified="2022-10-05T12:03:03.952Z" agent="5.0 (Windows NT 10.0; Win64; x64) AppleWebKit/537.36 (KHTML, like Gecko) Chrome/105.0.0.0 Safari/537.36" etag="MxgZa-imwm6bmcDtjJcr" version="20.3.6" type="github">
  <diagram name="Page-1" id="f1b7ffb7-ca1e-a977-7cf5-a751b3c06c05">
    <mxGraphModel dx="1422" dy="1874" grid="1" gridSize="10" guides="1" tooltips="1" connect="1" arrows="1" fold="1" page="1" pageScale="1" pageWidth="826" pageHeight="1169" background="none" math="0" shadow="0">
      <root>
        <mxCell id="0" />
        <mxCell id="1" parent="0" />
        <mxCell id="mqJjcbdvvd5civ246C5x-61" value="Window Title" style="strokeWidth=1;shadow=0;dashed=0;align=center;html=1;shape=mxgraph.mockup.containers.window;align=left;verticalAlign=top;spacingLeft=8;strokeColor2=#008cff;strokeColor3=#c4c4c4;fontColor=#666666;mainText=;fontSize=17;labelBackgroundColor=none;" parent="1" vertex="1">
          <mxGeometry x="40" y="-180" width="770" height="550" as="geometry" />
        </mxCell>
        <mxCell id="mqJjcbdvvd5civ246C5x-62" value="" style="strokeWidth=1;shadow=0;dashed=0;align=center;html=1;shape=mxgraph.mockup.containers.marginRect2;rectMarginTop=32;strokeColor=#666666;gradientColor=none;" parent="1" vertex="1">
          <mxGeometry x="40" y="-150" width="770" height="520" as="geometry" />
        </mxCell>
        <mxCell id="mqJjcbdvvd5civ246C5x-63" value="Tab 1" style="strokeColor=inherit;fillColor=inherit;gradientColor=inherit;strokeWidth=1;shadow=0;dashed=0;align=center;html=1;shape=mxgraph.mockup.containers.rrect;rSize=0;fontSize=17;fontColor=#666666;gradientColor=none;" parent="mqJjcbdvvd5civ246C5x-62" vertex="1">
          <mxGeometry width="60" height="25" relative="1" as="geometry">
            <mxPoint x="10" as="offset" />
          </mxGeometry>
        </mxCell>
        <mxCell id="mqJjcbdvvd5civ246C5x-64" value="Acce EXP" style="strokeWidth=1;shadow=0;dashed=0;align=center;html=1;shape=mxgraph.mockup.containers.rrect;rSize=0;fontSize=17;fontColor=#ffffff;strokeColor=#008cff;fillColor=#008cff;" parent="mqJjcbdvvd5civ246C5x-62" vertex="1">
          <mxGeometry width="90" height="25" relative="1" as="geometry">
            <mxPoint x="75" as="offset" />
          </mxGeometry>
        </mxCell>
        <mxCell id="mqJjcbdvvd5civ246C5x-65" value="Tab 3" style="strokeColor=inherit;fillColor=inherit;gradientColor=inherit;strokeWidth=1;shadow=0;dashed=0;align=center;html=1;shape=mxgraph.mockup.containers.rrect;rSize=0;fontSize=17;fontColor=#666666;gradientColor=none;" parent="mqJjcbdvvd5civ246C5x-62" vertex="1">
          <mxGeometry width="60" height="25" relative="1" as="geometry">
            <mxPoint x="170" as="offset" />
          </mxGeometry>
        </mxCell>
        <mxCell id="mqJjcbdvvd5civ246C5x-66" value="" style="strokeWidth=1;shadow=0;dashed=0;align=center;html=1;shape=mxgraph.mockup.containers.topButton;rSize=5;strokeColor=#008cff;fillColor=#008cff;gradientColor=none;resizeWidth=1;movable=0;deletable=1;" parent="mqJjcbdvvd5civ246C5x-62" vertex="1">
          <mxGeometry width="770" height="7" relative="1" as="geometry">
            <mxPoint y="25" as="offset" />
          </mxGeometry>
        </mxCell>
        <mxCell id="mqJjcbdvvd5civ246C5x-77" value="Select Waveform" style="strokeWidth=1;shadow=0;dashed=0;align=center;html=1;shape=mxgraph.mockup.buttons.button;strokeColor=#666666;fontColor=#ffffff;mainText=;buttonStyle=round;fontSize=17;fontStyle=1;fillColor=#008cff;whiteSpace=wrap;" parent="mqJjcbdvvd5civ246C5x-62" vertex="1">
          <mxGeometry x="470" y="120" width="170" height="70" as="geometry" />
        </mxCell>
        <mxCell id="OzMhM7lSO2n6kDQg1XAX-1" value="Single Pulse" style="strokeWidth=1;shadow=0;dashed=0;align=center;html=1;shape=mxgraph.mockup.buttons.button;strokeColor=#666666;fontColor=#ffffff;mainText=;buttonStyle=round;fontSize=17;fontStyle=1;fillColor=#008cff;whiteSpace=wrap;" vertex="1" parent="mqJjcbdvvd5civ246C5x-62">
          <mxGeometry x="110" y="120" width="170" height="70" as="geometry" />
        </mxCell>
        <mxCell id="OzMhM7lSO2n6kDQg1XAX-2" value="Continues Pulse" style="strokeWidth=1;shadow=0;dashed=0;align=center;html=1;shape=mxgraph.mockup.buttons.button;strokeColor=#666666;fontColor=#ffffff;mainText=;buttonStyle=round;fontSize=17;fontStyle=1;fillColor=#008cff;whiteSpace=wrap;" vertex="1" parent="mqJjcbdvvd5civ246C5x-62">
          <mxGeometry x="110" y="240" width="170" height="65" as="geometry" />
        </mxCell>
        <mxCell id="OzMhM7lSO2n6kDQg1XAX-3" value="Stop" style="strokeWidth=1;shadow=0;dashed=0;align=center;html=1;shape=mxgraph.mockup.buttons.button;strokeColor=#666666;fontColor=#ffffff;mainText=;buttonStyle=round;fontSize=17;fontStyle=1;fillColor=#008cff;whiteSpace=wrap;" vertex="1" parent="mqJjcbdvvd5civ246C5x-62">
          <mxGeometry x="110" y="365" width="170" height="60" as="geometry" />
        </mxCell>
        <mxCell id="OzMhM7lSO2n6kDQg1XAX-4" value="" style="verticalLabelPosition=bottom;shadow=0;dashed=0;align=center;html=1;verticalAlign=top;strokeWidth=1;shape=mxgraph.mockup.forms.horSlider;strokeColor=#999999;sliderStyle=basic;sliderPos=43.929;handleStyle=circle;fillColor2=#ddeeff;" vertex="1" parent="mqJjcbdvvd5civ246C5x-62">
          <mxGeometry x="390" y="350" width="280" height="30" as="geometry" />
        </mxCell>
        <mxCell id="OzMhM7lSO2n6kDQg1XAX-5" value="&lt;font style=&quot;font-size: 21px;&quot;&gt;200ms&lt;/font&gt;" style="text;html=1;strokeColor=none;fillColor=none;align=center;verticalAlign=middle;whiteSpace=wrap;rounded=0;" vertex="1" parent="mqJjcbdvvd5civ246C5x-62">
          <mxGeometry x="492.5" y="270" width="75" height="45" as="geometry" />
        </mxCell>
        <mxCell id="OzMhM7lSO2n6kDQg1XAX-6" value="&lt;font style=&quot;font-size: 21px;&quot;&gt;50ms&lt;/font&gt;" style="text;html=1;strokeColor=none;fillColor=none;align=center;verticalAlign=middle;whiteSpace=wrap;rounded=0;" vertex="1" parent="mqJjcbdvvd5civ246C5x-62">
          <mxGeometry x="336" y="372.5" width="75" height="45" as="geometry" />
        </mxCell>
        <mxCell id="OzMhM7lSO2n6kDQg1XAX-7" value="&lt;font style=&quot;font-size: 21px;&quot;&gt;500ms&lt;/font&gt;" style="text;html=1;strokeColor=none;fillColor=none;align=center;verticalAlign=middle;whiteSpace=wrap;rounded=0;" vertex="1" parent="mqJjcbdvvd5civ246C5x-62">
          <mxGeometry x="640" y="365" width="75" height="45" as="geometry" />
        </mxCell>
      </root>
    </mxGraphModel>
  </diagram>
</mxfile>
